<?xml version="1.0" encoding="utf-8"?>
<!-- Uploaded to: SVG Repo, www.svgrepo.com, Generator: SVG Repo Mixer Tools -->
<svg width="800px" height="800px" viewBox="0 0 24 24" fill="none" xmlns="http://www.w3.org/2000/svg">
<g id="style=linear">
<g id="filter-rectangle">
<path id="vector" d="M2 17.5H7" stroke="#000000" stroke-width="1.5" stroke-miterlimit="10" stroke-linecap="round" stroke-linejoin="round"/>
<path id="vector_2" d="M22 6.5H17" stroke="#000000" stroke-width="1.5" stroke-miterlimit="10" stroke-linecap="round" stroke-linejoin="round"/>
<path id="vector_3" d="M13 17.5H22" stroke="#000000" stroke-width="1.5" stroke-miterlimit="10" stroke-linecap="round" stroke-linejoin="round"/>
<path id="vector_4" d="M11 6.5H2" stroke="#000000" stroke-width="1.5" stroke-miterlimit="10" stroke-linecap="round" stroke-linejoin="round"/>
<path id="rec" d="M7 15.5C7 14.9477 7.44772 14.5 8 14.5H12C12.5523 14.5 13 14.9477 13 15.5V19.5C13 20.0523 12.5523 20.5 12 20.5H8C7.44772 20.5 7 20.0523 7 19.5V15.5Z" stroke="#000000" stroke-width="1.5"/>
<path id="rec_2" d="M17 4.5C17 3.94772 16.5523 3.5 16 3.5H12C11.4477 3.5 11 3.94772 11 4.5V8.5C11 9.05228 11.4477 9.5 12 9.5H16C16.5523 9.5 17 9.05228 17 8.5V4.5Z" stroke="#000000" stroke-width="1.5"/>
</g>
</g>
</svg>