<?xml version="1.0" encoding="utf-8"?><!-- Uploaded to: SVG Repo, www.svgrepo.com, Generator: SVG Repo Mixer Tools -->
<svg width="800px" height="800px" viewBox="0 0 24 24" fill="none" xmlns="http://www.w3.org/2000/svg">
<path d="M20 15C20.5523 15 21 14.5523 21 14C21 13.4477 20.5523 13 20 13C19.4477 13 19 13.4477 19 14C19 14.5523 19.4477 15 20 15Z" fill="#0F0F0F"/>
<path fill-rule="evenodd" clip-rule="evenodd" d="M16.775 0.985398C18.4919 0.460783 20.2821 1.55148 20.6033 3.3178L20.9362 5.14896C22.1346 5.54225 23 6.67006 23 8V10.7639C23.6137 11.3132 24 12.1115 24 13V15C24 15.8885 23.6137 16.6868 23 17.2361V20C23 21.6569 21.6569 23 20 23H4C2.34315 23 1 21.6569 1 20V8C1 6.51309 2.08174 5.27884 3.50118 5.04128L16.775 0.985398ZM21 16C21.5523 16 22 15.5523 22 15V13C22 12.4477 21.5523 12 21 12H18C17.4477 12 17 12.4477 17 13V15C17 15.5523 17.4477 16 18 16H21ZM21 18V20C21 20.5523 20.5523 21 20 21H4C3.44772 21 3 20.5523 3 20V8C3 7.44772 3.44772 7 4 7H20C20.55 7 20.9962 7.44396 21 7.99303L21 10H18C16.3431 10 15 11.3431 15 13V15C15 16.6569 16.3431 18 18 18H21ZM18.6954 3.60705L18.9412 5H10L17.4232 2.82301C17.9965 2.65104 18.5914 3.01769 18.6954 3.60705Z" fill="#0F0F0F"/>
</svg>